<svg xmlns="http://www.w3.org/2000/svg" version="1.0" viewBox="0 0 1024 1024"><path fill="#39F" stroke="#39F" stroke-width="10" d="M418.1 329.5c-17.8 3.9-34.8 17.2-42.9 33.6-9.5 19.3-9.5 38.5 0 57.8 8.2 16.6 25.1 29.7 43.4 33.6 45.1 9.6 85.5-30.8 75.9-75.9-7.2-34.2-42-56.5-76.4-49.1zm160 0c-17.8 3.9-34.8 17.2-42.9 33.6-9.5 19.3-9.5 38.5 0 57.8 8.2 16.6 25.1 29.7 43.4 33.6 45.1 9.6 85.5-30.8 75.9-75.9-7.2-34.2-42-56.5-76.4-49.1zM410.5 476.6c-40.4 7.2-75.9 35.5-91.5 72.9-9 21.8-10.2 33.7-9.8 97.5.3 47.8.4 49.6 2.4 53 3.9 6.7 12.7 9.7 19.7 6.6 1.8-.8 18.8-17 38.2-36.5l35-35.1H444c39.2 0 39.5-.1 35.4-1.9-5.3-2.4-10.9-9.1-12.3-14.6-1.4-5.5-1.4-19.3-.1-32.4 3.1-30 15-55.1 35.9-75.6 3.9-3.8 7.1-7.3 7.1-7.7 0-1.2-17.8-12.6-25.2-16.1-9.4-4.5-21.7-8.3-32.5-10.2-10.6-1.9-31.1-1.8-41.8.1zm157.1 0c-18.7 3.4-43 14.4-54.2 24.6l-2.1 1.9 8.3 8.4c16.1 16.3 27.4 37 32.6 59.7 1.7 7.7 2.1 12.7 2.2 28.9l.1 19.5-3 4.9c-2.2 3.6-4.5 5.7-8.4 7.7l-5.4 2.9 79.5-.3 79.5-.3 4.8-3c3.6-2.2 5.7-4.5 7.8-8.5l2.9-5.5-.5-19c-.4-11.5-1.2-21.8-2.2-26-5.4-24.5-16.2-44.1-33.5-61.5-18.6-18.7-41.2-30.4-66.4-34.5-11.3-1.8-31.5-1.8-42 .1z"/><path fill="#06C" stroke="#06C" stroke-width="10" d="M503.2 510.8c-19.5 19.8-31.8 45.1-35.2 72.2-1.3 10.9-1.3 31.4.1 36.3 1.3 4.7 6 10.2 11.3 13 3.9 2.1 5.2 2.2 31.1 2.2 27 0 27.1 0 32-2.6 3-1.5 6.2-4.2 8-6.8l3-4.3.3-16.6c.3-12.1-.1-19.4-1.3-26.6-4.1-24.2-14.8-46-31.6-64-10.3-11-9.7-10.9-17.7-2.8z"/></svg>